<svg width="26" height="26" viewBox="0 0 26 26" fill="none" xmlns="http://www.w3.org/2000/svg">
<path d="M13 18C13.5523 18 14 18.4477 14 19V20C14 20.5523 13.5523 21 13 21C12.4477 21 12 20.5523 12 20V19C12 18.4477 12.4477 18 13 18Z" fill="#AD7562"/>
<path d="M13 5C12.391 5 11.8363 5.35485 11.6176 5.92325C11.3353 6.65716 11 7.66301 11 8.3C11 10.6423 11.5038 13.5388 11.7962 15.0227C11.9093 15.5966 12.4151 16 13 16C13.5849 16 14.0907 15.5966 14.2038 15.0227C14.4962 13.5388 15 10.6423 15 8.3C15 7.66301 14.6647 6.65716 14.3824 5.92324C14.1637 5.35484 13.609 5 13 5Z" fill="#AD7562"/>
<path fill-rule="evenodd" clip-rule="evenodd" d="M13 0C5.8203 0 0 5.8203 0 13C0 20.1797 5.8203 26 13 26C20.1797 26 26 20.1797 26 13C26 5.8203 20.1797 0 13 0ZM2 13C2 6.92487 6.92487 2 13 2C19.0751 2 24 6.92487 24 13C24 19.0751 19.0751 24 13 24C6.92487 24 2 19.0751 2 13Z" fill="#AD7562"/>
</svg>
