<svg width="283" height="105" viewBox="0 0 283 105" fill="none" xmlns="http://www.w3.org/2000/svg">
<path d="M35.855 48.6719H35.0961L33.7692 47.9062C33.7187 47.9072 33.6686 47.8978 33.6219 47.8789C33.5752 47.8599 33.5328 47.8317 33.4973 47.7959C33.4618 47.7601 33.434 47.7175 33.4155 47.6707C33.397 47.6238 33.3883 47.5737 33.3898 47.5234V45.4169C33.3898 45.0341 33.3898 45.0341 33.7692 44.6512L49.7032 34.6981L26.56 21.875H25.0423L1.71046 34.7003L27.8869 50.0128C28.2663 50.0128 28.2663 50.3956 28.2663 50.7784V72.9816C28.2663 73.3644 28.2663 73.3644 27.8869 73.7472L26.56 74.5128H25.8011L24.4742 73.7472C24.0948 73.7472 24.0948 73.3644 24.0948 72.9816V53.2656C24.096 53.2154 24.087 53.1655 24.0684 53.1188C24.0498 53.0721 24.022 53.0296 23.9865 52.9939C23.9511 52.9581 23.9089 52.9299 23.8623 52.9108C23.8157 52.8917 23.7657 52.8822 23.7153 52.8828L0.383545 39.2941V65.7081C0.471818 66.3416 0.734506 66.9383 1.14241 67.4319L24.6628 81.4012C25.0423 81.4012 25.0423 81.7841 25.4217 81.7841C25.8011 81.7841 26.1806 81.7841 26.1806 81.4012L49.701 67.4297C49.9526 67.2205 50.152 66.956 50.2837 66.6569C50.4154 66.3577 50.4757 66.0322 50.4598 65.7059V39.2941L35.855 48.6719Z" fill="white"/>
<path d="M204.106 73.9375H198.046V44.2706C201.064 43.0446 204.266 42.3325 207.521 42.1641C214.78 42.1641 219.849 46.7294 219.849 53.2656C219.849 60.6856 215.355 64.9425 207.521 64.9425V60.1562C208.353 60.1927 209.183 60.0479 209.953 59.7321C210.723 59.4163 211.416 58.937 211.982 58.3275C213.115 56.8901 213.686 55.0914 213.589 53.2656C213.67 52.4475 213.57 51.6216 213.294 50.8467C213.019 50.0717 212.576 49.3668 211.997 48.7821C211.417 48.1973 210.716 47.7471 209.942 47.4634C209.169 47.1797 208.342 47.0695 207.521 47.1406C206.326 46.9616 205.108 47.2347 204.106 47.9062V73.9375ZM78.7241 66.2812C77.1763 66.3439 75.6324 66.0838 74.1911 65.5174C72.7498 64.9511 71.4428 64.091 70.3537 62.9923C69.2647 61.8935 68.4174 60.5802 67.8662 59.1362C67.315 57.6923 67.0719 56.1495 67.1525 54.6066C67.072 53.0635 67.315 51.5207 67.8662 50.0766C68.4174 48.6326 69.2646 47.3191 70.3536 46.2202C71.4427 45.1212 72.7496 44.261 74.1909 43.6944C75.6322 43.1278 77.1762 42.8673 78.7241 42.9297C80.8423 42.6638 82.9875 43.1376 84.795 44.2706V50.0106C83.3053 48.6215 81.3312 47.8666 79.2922 47.9062C78.471 47.8351 77.6442 47.9453 76.8705 48.229C76.0969 48.5127 75.3954 48.9629 74.816 49.5477C74.2366 50.1325 73.7936 50.8374 73.5183 51.6123C73.243 52.3872 73.1424 53.2131 73.2234 54.0313C73.1424 54.8494 73.243 55.6753 73.5183 56.4502C73.7936 57.2251 74.2366 57.93 74.816 58.5148C75.3954 59.0996 76.0969 59.5498 76.8705 59.8335C77.6442 60.1172 78.471 60.2274 79.2922 60.1562C80.4116 60.121 81.5247 59.9744 82.6149 59.7188H82.6457C83.3506 59.546 84.0702 59.4391 84.795 59.3994V64.9512L84.2423 65.1197L84.1151 65.1591L83.9353 65.2159C82.262 65.831 80.5051 66.1901 78.7241 66.2812ZM274.853 65.7059C268.559 65.7059 265.37 62.6784 265.37 56.7109V34.6981H271.438V42.9297H279.027V47.7159H271.438V56.7109C271.438 58.8678 273 60.1562 275.606 60.1562C276.98 60.3127 278.37 60.0455 279.589 59.3906V64.9425C278.077 65.5106 276.467 65.7702 274.853 65.7059ZM253.798 65.7059C251.495 65.6354 249.249 64.9763 247.275 63.7919H247.725V58.2422C249.597 59.9368 252.027 60.8899 254.555 60.9219C254.868 60.9578 255.185 60.9318 255.488 60.8453C255.791 60.7589 256.074 60.6136 256.321 60.418C256.568 60.2223 256.773 59.98 256.926 59.705C257.079 59.43 257.175 59.1277 257.211 58.8153C257.211 57.9994 256.285 57.4306 253.798 56.7109C248.947 55.9278 246.968 53.9306 246.968 49.8203C246.906 48.8258 247.082 47.8309 247.482 46.9178C247.882 46.0048 248.495 45.2001 249.269 44.5703C250.986 43.3939 253.044 42.8143 255.125 42.9209C257.238 42.7395 259.356 43.2074 261.194 44.2619V49.8203C259.438 48.5086 257.318 47.7733 255.125 47.7159C253.338 47.7159 252.469 48.405 252.469 49.8203C252.469 50.5203 252.908 51.1153 255.125 51.9247C257.248 52.0478 259.286 52.7979 260.981 54.0794C261.598 54.6952 262.073 55.4382 262.372 56.2563C262.671 57.0744 262.787 57.9478 262.711 58.8153C262.72 63.8969 258.114 65.7059 253.798 65.7059ZM233.311 65.5156C231.763 65.5783 230.219 65.3181 228.778 64.7518C227.337 64.1855 226.03 63.3254 224.941 62.2266C223.852 61.1279 223.004 59.8145 222.453 58.3706C221.902 56.9267 221.659 55.3839 221.739 53.8409C221.739 50.78 222.959 47.8444 225.129 45.68C227.299 43.5156 230.242 42.2997 233.311 42.2997C236.38 42.2997 239.323 43.5156 241.493 45.68C243.663 47.8444 244.883 50.78 244.883 53.8409C244.963 55.3833 244.72 56.9255 244.169 58.369C243.619 59.8124 242.772 61.1255 241.684 62.2241C240.595 63.3228 239.289 64.183 237.849 64.7497C236.408 65.3165 234.865 65.5773 233.318 65.5156H233.311ZM233.311 47.7159C229.712 47.7159 227.81 49.8334 227.81 53.8409C227.734 54.6104 227.819 55.3873 228.06 56.1222C228.301 56.8571 228.693 57.534 229.21 58.1099C229.727 58.6859 230.359 59.1483 231.065 59.4678C231.771 59.7873 232.536 59.9569 233.311 59.9659C236.91 59.9659 238.812 57.8484 238.812 53.8409C238.818 49.9472 236.814 47.7159 233.318 47.7159H233.311ZM184.377 65.5156C182.83 65.578 181.286 65.3176 179.845 64.7511C178.404 64.1846 177.097 63.3245 176.008 62.2258C174.92 61.1271 174.073 59.8138 173.521 58.3701C172.97 56.9263 172.727 55.3837 172.808 53.8409C172.787 52.3121 173.071 50.7943 173.643 49.3757C174.215 47.9572 175.063 46.6661 176.14 45.5775C177.216 44.4889 178.499 43.6246 179.913 43.0346C181.328 42.4446 182.845 42.1408 184.378 42.1408C185.911 42.1408 187.429 42.4446 188.843 43.0346C190.258 43.6246 191.54 44.4889 192.617 45.5775C193.693 46.6661 194.542 47.9572 195.114 49.3757C195.686 50.7943 195.97 52.3121 195.949 53.8409C196.03 55.3839 195.786 56.9267 195.235 58.3706C194.684 59.8145 193.837 61.1279 192.748 62.2266C191.659 63.3254 190.352 64.1855 188.91 64.7518C187.469 65.3181 185.925 65.5783 184.377 65.5156ZM184.377 47.7159C180.78 47.7159 178.879 49.8334 178.879 53.8409C178.803 54.6102 178.888 55.3869 179.129 56.1216C179.37 56.8564 179.761 57.5332 180.278 58.1091C180.795 58.685 181.426 59.1475 182.132 59.4671C182.838 59.7868 183.602 59.9566 184.377 59.9659C187.976 59.9659 189.878 57.8484 189.878 53.8409C189.938 53.0747 189.841 52.3044 189.594 51.5765C189.347 50.8486 188.954 50.1782 188.44 49.6058C187.926 49.0333 187.301 48.5707 186.603 48.2459C185.905 47.9211 185.147 47.7408 184.377 47.7159ZM136.578 65.5156C135.03 65.5783 133.486 65.3181 132.045 64.7518C130.603 64.1855 129.296 63.3254 128.207 62.2266C127.118 61.1279 126.271 59.8145 125.72 58.3706C125.169 56.9267 124.925 55.3839 125.006 53.8409C124.925 52.2979 125.169 50.755 125.72 49.311C126.271 47.8669 127.118 46.5535 128.207 45.4545C129.296 44.3556 130.603 43.4953 132.044 42.9287C133.486 42.3622 135.03 42.1017 136.578 42.1641C138.126 42.1017 139.67 42.3622 141.111 42.9287C142.552 43.4953 143.859 44.3556 144.948 45.4545C146.037 46.5535 146.884 47.8669 147.436 49.311C147.987 50.755 148.23 52.2979 148.149 53.8409C148.23 55.3839 147.987 56.9267 147.436 58.3706C146.884 59.8145 146.037 61.1279 144.948 62.2266C143.859 63.3254 142.552 64.1855 141.111 64.7518C139.669 65.3181 138.126 65.5783 136.578 65.5156ZM136.578 47.7159C132.979 47.7159 131.077 49.8334 131.077 53.8409C131.001 54.6104 131.086 55.3873 131.327 56.1222C131.568 56.8571 131.96 57.534 132.477 58.1099C132.994 58.6859 133.626 59.1483 134.332 59.4678C135.038 59.7873 135.802 59.9569 136.578 59.9659C140.177 59.9659 142.078 57.8484 142.078 53.8409C142.078 49.9472 140.074 47.7159 136.578 47.7159ZM156.306 64.9447H150.994V44.2706C154.224 42.8592 157.716 42.1414 161.243 42.1641C163.738 41.9347 166.231 42.6155 168.261 44.0803C169.167 45.0085 169.857 46.1239 170.283 47.3474C170.709 48.571 170.861 49.8729 170.727 51.1613V64.9425H164.658V51.1613C164.658 49.0044 163.098 47.7159 160.491 47.7159C159.057 47.5795 157.615 47.8438 156.323 48.4794V64.9425L156.306 64.9447ZM117.42 64.9447H111.349V51.1634C111.233 49.8583 111.413 48.5439 111.877 47.3179C112.34 46.092 113.075 44.9861 114.027 44.0825C115.998 42.669 118.404 41.9908 120.826 42.1662C121.526 42.1942 122.221 42.3073 122.894 42.5031C123.826 42.7688 124.789 42.9158 125.758 42.9406V48.4794C124.456 47.878 123.023 47.6154 121.591 47.7159C118.547 47.7159 117.424 48.65 117.424 51.1613V64.9425L117.42 64.9447ZM102.633 64.9447V51.1634C102.633 49.0066 101.073 47.7181 98.4656 47.7181C97.0324 47.5814 95.5893 47.8458 94.2984 48.4816V64.9447H88.2077V32.5938H95.0353V42.9297C95.7485 42.8946 96.4566 42.7906 97.1496 42.6191H97.2066C98.2969 42.3634 99.41 42.2169 100.529 42.1816C101.674 42.1863 102.805 42.4291 103.85 42.8945C104.895 43.3599 105.831 44.0376 106.599 44.8843C107.367 45.7311 107.949 46.7282 108.308 47.812C108.668 48.8958 108.796 50.0425 108.686 51.1788V64.96L102.633 64.9447Z" fill="white"/>
</svg>
