<svg width="257" height="66" viewBox="0 0 257 66" fill="none" xmlns="http://www.w3.org/2000/svg">
<g clip-path="url(#clip0_4_54)">
<path d="M28.1777 0C27.804 0 27.4676 0.0750853 27.1687 0.225256L1.4201 14.3413L30.2705 31.198C30.5321 31.3481 30.7563 31.686 30.7563 32.0239V56.6143C30.7563 56.9522 30.5694 57.2526 30.2705 57.4403L28.7009 58.3038C28.5514 58.3788 28.4019 58.4164 28.2524 58.4164H28.2151C28.0282 58.4164 27.8787 58.3788 27.7292 58.3038L26.1597 57.4403C25.8607 57.2526 25.7112 56.9522 25.6738 56.6143V34.6519C25.6365 34.4642 25.5617 34.314 25.4122 34.2389L0 19.372V48.4676C0 49.1058 0.448451 49.9317 1.00902 50.2321L27.1687 65.7372C27.4676 65.8874 27.8414 66 28.1777 66C28.514 66 28.8877 65.9249 29.1867 65.7372L55.3464 50.2321C55.9443 49.8191 56.318 49.1809 56.3554 48.4676V19.372L39.1274 29.4334C38.8284 29.5836 38.4921 29.5836 38.1931 29.4334L36.6983 28.5324C36.5488 28.4573 36.4367 28.3072 36.3619 28.1945V28.157C36.2498 28.0068 36.2124 27.8567 36.2124 27.6689L36.1751 25.8669C36.1751 25.529 36.3619 25.2287 36.6235 25.041L54.9727 14.3038L29.2241 0.225256C28.8877 0.0750853 28.5514 0 28.1777 0" fill="white"/>
<path d="M122.203 14.5288V40.0578C122.203 47.0032 126.089 49.2933 132.106 49.3309V43.6244H132.069C129.752 43.4367 128.556 42.0851 128.556 39.6448V14.5288H122.203ZM138.235 15.7677C136.479 15.7677 135.059 17.1943 135.059 18.9588C135.059 20.7233 136.479 22.15 138.235 22.15C139.991 22.15 141.412 20.7233 141.412 18.9588C141.412 17.1943 139.991 15.7677 138.235 15.7677ZM187.527 15.7677C185.771 15.7677 184.351 17.1943 184.351 18.9588C184.351 20.7233 185.771 22.15 187.527 22.15C189.284 22.15 190.704 20.7233 190.704 18.9588C190.704 17.1943 189.284 15.7677 187.527 15.7677ZM154.006 24.5152C148.923 24.5152 144.999 26.9179 144.999 32.1363C144.999 36.4537 147.241 38.5561 152.585 39.5322C155.201 40.0578 156.173 40.6585 156.173 42.0851C156.173 43.5868 154.865 44.15 152.884 44.15C150.567 44.15 147.578 43.1363 145.373 41.4844V47.3786C147.279 48.6175 150.194 49.2933 153.034 49.2933C158.527 49.2933 162.414 46.9657 162.414 41.7848C162.414 37.5425 160.359 35.1773 154.267 34.051C152.025 33.5254 151.203 32.8872 151.203 31.6483C151.203 30.522 152.1 29.621 154.23 29.621C156.659 29.621 158.714 30.4094 160.957 31.9111V26.2797C158.864 25.1158 156.808 24.5152 154.006 24.5152ZM173.177 24.5152C168.094 24.5152 164.17 26.9179 164.17 32.1363C164.17 36.4537 166.413 38.5561 171.757 39.5322C174.373 40.0578 175.344 40.6585 175.344 42.0851C175.344 43.5868 174.036 44.15 172.056 44.15C169.739 44.15 166.749 43.1363 164.544 41.4844V47.3786C166.45 48.6175 169.365 49.2933 172.205 49.2933C177.699 49.2933 181.585 46.9657 181.585 41.7848C181.585 37.5425 179.53 35.1773 173.438 34.051C171.196 33.5254 170.374 32.8872 170.374 31.6483C170.374 30.522 171.271 29.621 173.401 29.621C175.83 29.621 177.886 30.4094 180.128 31.9111V26.2797C178.035 25.1158 175.98 24.5152 173.177 24.5152ZM86.4389 24.778C79.2263 24.778 73.9944 29.7336 73.9944 37.2421C73.9944 44.6756 78.8526 49.5937 86.5137 49.5937C88.9428 49.5937 91.2971 49.1056 93.3899 47.8291V41.8223C91.5961 43.2114 89.6154 43.9623 87.4106 43.9623C83.1129 43.9623 80.4222 41.1841 80.4222 37.1295C80.4222 32.8872 83.225 30.4094 87.149 30.4094C89.3165 30.4094 91.2224 31.01 93.203 32.5868V26.5425C91.1476 25.3411 89.167 24.778 86.4389 24.778ZM107.404 24.778C100.341 24.778 95.0716 29.7711 95.0716 37.167C95.0716 44.5629 100.378 49.5561 107.404 49.5561C114.467 49.5561 119.811 44.5629 119.811 37.167C119.811 29.7711 114.43 24.778 107.404 24.778ZM244.63 24.778C237.567 24.778 232.298 29.7711 232.298 37.167C232.298 44.5629 237.604 49.5561 244.63 49.5561C251.693 49.5561 257.037 44.5629 257.037 37.167C257.037 29.7711 251.656 24.778 244.63 24.778ZM206.026 24.8155C202.513 24.8155 198.664 25.6039 195.375 26.8803V49.0681H201.728V31.0476C202.999 30.6722 204.157 30.4469 205.69 30.4469C208.119 30.4469 209.277 31.7233 209.277 34.2387V49.0681H215.668V33.7882C215.668 32.6619 215.406 31.8735 215.182 31.3479C216.228 30.8223 217.947 30.4469 219.592 30.4469C222.095 30.4469 223.179 31.7233 223.179 34.2387V49.0681H229.57V33.9759C229.57 26.993 226.019 24.8155 220.414 24.8155C216.976 24.8155 214.547 25.7165 212.416 26.6926C211.071 25.4913 208.754 24.8155 206.026 24.8155ZM135.059 25.266V49.0681H141.449V25.266H135.059ZM184.351 25.266V49.0681H190.741V25.266H184.351ZM107.404 30.3343C110.842 30.3343 113.346 32.9623 113.346 37.2046C113.346 41.4469 110.842 44.0749 107.404 44.0749C103.966 44.0749 101.462 41.4469 101.462 37.2046C101.462 32.9247 103.966 30.3343 107.404 30.3343ZM244.63 30.3343C248.068 30.3343 250.572 32.9623 250.572 37.2046C250.572 41.4469 248.068 44.0749 244.63 44.0749C241.192 44.0749 238.688 41.4469 238.688 37.2046C238.688 32.9247 241.192 30.3343 244.63 30.3343Z" fill="white"/>
</g>
<defs>
<clipPath id="clip0_4_54">
<rect width="257" height="66" fill="white"/>
</clipPath>
</defs>
</svg>
