<svg width="225" height="32" viewBox="0 0 225 32" fill="none" xmlns="http://www.w3.org/2000/svg">
<path d="M39.5677 0.0395508L32.3794 9.83731H71.5567C73.5378 9.83731 73.513 10.5856 72.5447 11.9089C71.5616 13.247 69.9164 15.5613 68.9135 16.9242C68.4047 17.6131 67.4858 18.8669 70.5291 18.8669H86.5507L91.2984 12.3945C94.2429 8.38524 91.5553 0.0445039 81.0274 0.0445039L39.5677 0.0395508Z" fill="white"/>
<path d="M29.4694 31.9603L43.9102 12.2756H61.8289C63.81 12.2756 63.7853 13.0289 62.817 14.3472L59.1611 19.3427C58.6523 20.0315 57.7334 21.2854 60.7766 21.2854H84.777C82.786 24.0309 76.3043 31.9603 64.6845 31.9603H29.4694ZM112.162 21.2804L104.331 31.9603H83.6753L91.5058 21.2804H112.162ZM143.8 18.862H93.2844L107.098 0.0395508H127.744L119.829 10.8334H129.043L136.967 0.0395508H157.613L143.8 18.862ZM142.026 21.2804L134.196 31.9603H113.55L121.38 21.2804H142.026ZM0 25.4929H30.4229L28.7629 27.7578H0V25.4929ZM0 21.2804H33.5156L31.8507 23.5453H0V21.2804ZM0 29.7054H27.3352L25.6801 31.9603H0V29.7054ZM225 27.7578H194.686L196.351 25.4929H225V27.7578ZM225 31.9603H191.608L193.258 29.7054H225V31.9603ZM199.438 21.2804H225V23.5502H197.778L199.438 21.2804ZM186.208 0.0395508L172.395 18.862H150.514L164.337 0.0395508H186.208ZM148.745 21.2804C148.745 21.2804 147.238 23.352 146.502 24.3431C143.913 27.8618 146.201 31.9554 154.664 31.9554H187.824L195.654 21.2804H148.745Z" fill="white"/>
</svg>
