<svg width="189" height="80" viewBox="0 0 189 80" fill="none" xmlns="http://www.w3.org/2000/svg">
<path fill-rule="evenodd" clip-rule="evenodd" d="M123.608 63.6743C120.112 64.6501 115.559 65.0574 111.656 65.0574C101.49 65.0574 94.8203 59.7709 94.8203 50.097C94.8203 40.9071 101.083 34.9714 110.188 34.9714C112.224 34.9714 114.418 35.2134 115.72 35.8627V22.5312H123.608V63.6743ZM115.72 42.6975C114.499 42.125 112.793 41.8023 110.841 41.8023C106.043 41.8023 102.873 44.7298 102.873 49.8511C102.873 55.2989 106.288 58.3917 111.901 58.3917C112.873 58.3917 114.418 58.3917 115.72 58.0651V42.6975ZM188.421 63.6743C184.925 64.6501 180.368 65.0574 176.384 65.0574C166.303 65.0574 159.553 59.7709 159.553 50.097C159.553 40.9071 165.815 34.9714 174.92 34.9714C177.033 34.9714 179.146 35.2134 180.453 35.8627V22.5312H188.421V63.6743ZM180.453 42.6975C179.231 42.125 177.606 41.8023 175.65 41.8023C170.771 41.8023 167.602 44.7298 167.602 49.8511C167.602 55.2989 171.098 58.3917 176.707 58.3917C177.687 58.3917 179.15 58.3917 180.453 58.0651V42.6975ZM136.052 42.6975C137.35 42.125 139.221 41.9636 140.766 41.9636C145.645 41.9636 148.98 44.7298 148.98 49.6859C148.98 55.5448 145.238 58.2265 140.278 58.3071V65.0574H140.685C150.931 65.0574 157.032 59.4482 157.032 49.4439C157.032 40.3385 150.524 34.9714 140.931 34.9714C136.052 34.9714 131.249 36.1086 128.08 37.411V76.0337H136.052V42.6975Z" fill="white"/>
<path fill-rule="evenodd" clip-rule="evenodd" d="M67.6541 17.2406H67.7387H67.6541ZM65.7063 16.1841L67.0049 17.6479L67.7348 17.2406L65.7063 16.1841Z" fill="white"/>
<path fill-rule="evenodd" clip-rule="evenodd" d="M63.7546 15.1274L66.2749 18.055L67.1701 17.5671L66.1943 16.4298L63.7546 15.1274Z" fill="white"/>
<path fill-rule="evenodd" clip-rule="evenodd" d="M61.7185 14.0708L65.5412 18.4621L66.4364 17.9742L64.2426 15.3694L61.7185 14.0708Z" fill="white"/>
<path fill-rule="evenodd" clip-rule="evenodd" d="M59.7666 13.0146L64.811 18.8659L65.7062 18.378L62.2101 14.3094L59.7666 13.0146ZM69.4482 23.3417L68.8758 23.6644L69.4444 24.3176V23.3417H69.4482Z" fill="white"/>
<path fill-rule="evenodd" clip-rule="evenodd" d="M57.8188 11.9541L64.0812 19.2729L64.9725 18.785L60.2546 13.2565L57.8188 11.9541ZM69.1218 23.5029L68.2266 24.0715L69.4445 25.5353V23.9908L69.1218 23.5029Z" fill="white"/>
<path fill-rule="evenodd" clip-rule="evenodd" d="M55.7827 10.8975L63.3474 19.6801L64.3233 19.1922L58.303 12.1999L55.7827 10.8975ZM68.388 23.91L67.4929 24.4786L69.4446 26.7569V25.2124L68.388 23.91Z" fill="white"/>
<path fill-rule="evenodd" clip-rule="evenodd" d="M53.8311 9.84082L62.6943 20.0872L63.5895 19.5993L56.2707 11.1432L53.8311 9.84082ZM67.6581 24.3978L66.7629 24.8858L69.4446 28.0553V26.5109L67.6581 24.3978Z" fill="white"/>
<path fill-rule="evenodd" clip-rule="evenodd" d="M51.8792 8.78467L61.9642 20.4948L62.8593 20.0069L54.3188 10.0871L51.8792 8.78467ZM66.9241 24.8054L66.0289 25.2934L69.4482 29.2774V27.733L66.9241 24.8054Z" fill="white"/>
<path fill-rule="evenodd" clip-rule="evenodd" d="M49.8469 7.72412L61.2305 20.9019L62.1257 20.414L52.3672 9.02653L49.8469 7.72412ZM66.1943 25.2125L65.2991 25.7004L69.4484 30.4951V28.9507L66.1943 25.2125Z" fill="white"/>
<path fill-rule="evenodd" clip-rule="evenodd" d="M47.8953 6.67139L60.4967 21.3859L61.3957 20.8212L50.3349 7.96995L47.8953 6.67139ZM65.4605 25.6159L64.5653 26.1038L69.4446 31.7975V30.253L65.4605 25.6159Z" fill="white"/>
<path fill-rule="evenodd" clip-rule="evenodd" d="M45.8628 5.61084L59.7705 21.7968L60.6618 21.2244L48.3831 6.91709L45.8628 5.61084ZM64.8111 26.0229L63.8353 26.5108L69.4445 33.019V31.4669L64.8111 26.0229Z" fill="white"/>
<path fill-rule="evenodd" clip-rule="evenodd" d="M43.9111 4.55469L59.0367 22.2006L60.0126 21.632L46.4314 5.8571L43.9111 4.55469ZM64.0812 26.4305L63.1822 26.9185L69.4445 34.318V32.6967L64.0812 26.4305Z" fill="white"/>
<path fill-rule="evenodd" clip-rule="evenodd" d="M41.9595 3.49805L58.3875 22.6077L59.2788 22.0391L44.3991 4.80045L41.9595 3.49805ZM63.3474 26.8377L62.4522 27.3256L69.4445 35.5396V33.9951L63.3474 26.8377Z" fill="white"/>
<path fill-rule="evenodd" clip-rule="evenodd" d="M39.927 2.36084L57.6536 23.015L58.5488 22.4464L42.4473 3.74393L39.927 2.36084ZM62.6135 27.2449L61.7183 27.7328L69.4444 36.7613V35.213L62.6135 27.2449Z" fill="white"/>
<path fill-rule="evenodd" clip-rule="evenodd" d="M37.9753 1.3042L56.9237 23.4221L57.815 22.9342L40.4956 2.68729L37.9753 1.3042ZM61.8836 27.652L60.9884 28.14L69.4445 38.0598V36.4347L61.8836 27.652Z" fill="white"/>
<path fill-rule="evenodd" clip-rule="evenodd" d="M36.0237 0.328613L56.1937 23.8296L57.0851 23.3417L38.4633 1.62718L36.0237 0.328613ZM61.1498 28.0557L60.2546 28.5436L69.4445 39.2779V37.7335L61.1498 28.0557Z" fill="white"/>
<path fill-rule="evenodd" clip-rule="evenodd" d="M34.7212 0.00186866L55.4598 24.2367L56.3512 23.7487L36.5115 0.570472L36.0236 0.328431C35.6297 0.0971384 35.1776 -0.0162051 34.7212 0.00186866ZM60.4197 28.4628L59.5246 28.9507L69.4444 40.4995V38.955L60.4197 28.4628Z" fill="white"/>
<path fill-rule="evenodd" clip-rule="evenodd" d="M34.7212 0.00195312C34.3946 0.00195312 34.0681 0.0826333 33.7454 0.163313L54.726 24.6401L55.7019 24.1522L34.9671 0.00195313L34.7212 0.00195312ZM59.7705 28.8701L58.8753 29.358L69.4444 41.802V40.173L59.7705 28.8701Z" fill="white"/>
<path fill-rule="evenodd" clip-rule="evenodd" d="M33.9912 0.0825195C33.826 0.1632 33.584 0.24388 33.5033 0.328402L33.0154 0.570442L54.0767 25.0473L54.9719 24.5593L33.9912 0.0863614V0.0825195ZM59.0367 29.2772L58.1415 29.8458L69.4444 43.0236V41.4753L59.0367 29.2772Z" fill="white"/>
<path fill-rule="evenodd" clip-rule="evenodd" d="M33.1769 0.40918L32.2817 0.897103L53.3431 25.4546L54.2383 24.9667L33.1769 0.40918ZM58.303 29.6846L57.4117 30.2532L69.4446 44.2377V42.6933L58.303 29.6846Z" fill="white"/>
<path fill-rule="evenodd" clip-rule="evenodd" d="M32.4431 0.816406L31.5518 1.30433L52.6131 25.8618L53.5083 25.3739L32.4431 0.816406ZM57.5692 30.0918L56.6779 30.6604L69.4445 45.5401V43.9957L57.5692 30.0918Z" fill="white"/>
<path fill-rule="evenodd" clip-rule="evenodd" d="M31.713 1.21973L30.8179 1.70765L51.8792 26.269L52.7744 25.7811L31.713 1.21973ZM56.8391 30.4951L55.9478 31.0676L69.4445 46.7618V45.2173L56.8391 30.4951Z" fill="white"/>
<path fill-rule="evenodd" clip-rule="evenodd" d="M30.9792 1.62695L30.0879 2.11488L51.1493 26.6762L52.0444 26.1883L30.9792 1.62695ZM56.1053 30.9023L55.214 31.4709L69.4445 47.9796V46.4352L56.1053 30.9023Z" fill="white"/>
<path fill-rule="evenodd" clip-rule="evenodd" d="M30.2494 2.03809L29.3503 2.51833L50.4117 27.0758L51.3069 26.5879L30.2494 2.03809ZM55.46 31.3135L54.5648 31.8782L69.4445 49.2821V47.7376L55.46 31.3135Z" fill="white"/>
<path fill-rule="evenodd" clip-rule="evenodd" d="M29.5156 2.36084L28.6243 2.92944L49.7663 27.4869L50.6615 26.999L29.5156 2.36084ZM54.7262 31.7976L53.8311 32.2855L69.4446 50.5V48.9556L54.7262 31.7976Z" fill="white"/>
<path fill-rule="evenodd" clip-rule="evenodd" d="M28.7855 2.76807L27.8904 3.25599L49.0324 27.8942L49.9276 27.4063L28.7855 2.76807ZM53.9962 32.2048L53.101 32.6927L69.4445 51.8024V50.1773L53.9962 32.2048Z" fill="white"/>
<path fill-rule="evenodd" clip-rule="evenodd" d="M28.0517 3.17139L27.1604 3.65931L48.3024 28.382L49.1976 27.8134L28.0517 3.17139ZM53.2624 32.612L52.3672 33.0999L69.4445 53.024V51.4758L53.2624 32.612Z" fill="white"/>
<path fill-rule="evenodd" clip-rule="evenodd" d="M27.3217 3.57861L26.4265 4.06654L47.5686 28.7892L48.4637 28.2206L27.3217 3.57861ZM52.5323 33.0192L51.6371 33.5071L69.4444 54.2419V52.6975L52.5323 33.0192Z" fill="white"/>
<path fill-rule="evenodd" clip-rule="evenodd" d="M26.5879 3.98584L25.6965 4.47376L46.8386 29.2003L47.7337 28.6317L26.5879 3.98584ZM51.7985 33.4264L50.9033 33.9143L69.4444 55.5443V53.9192L51.7985 33.4264Z" fill="white"/>
<path fill-rule="evenodd" clip-rule="evenodd" d="M25.8542 4.39307L24.9629 4.88099L46.1049 29.6037L47.0001 29.0313L25.8542 4.39307ZM51.1494 33.8298L50.2542 34.3177L69.4446 56.7622V55.2177L51.1494 33.8298Z" fill="white"/>
<path fill-rule="evenodd" clip-rule="evenodd" d="M25.1243 4.71973L24.1484 5.20765L45.4557 30.0072L46.3509 29.4386L25.1243 4.71973ZM50.4156 34.2371L49.5204 34.7251L69.4446 57.984V56.4396L50.4156 34.2371Z" fill="white"/>
<path fill-rule="evenodd" clip-rule="evenodd" d="M24.3943 5.12305L23.4185 5.61097L44.8064 30.495C44.8702 30.3511 44.9852 30.2361 45.1291 30.1723L45.617 29.8458L24.3943 5.12305ZM49.6856 34.6443L48.7904 35.1322L69.2832 59.0405C69.3752 58.8072 69.4297 58.5608 69.4446 58.3105V57.6574L49.6856 34.6443Z" fill="white"/>
<path fill-rule="evenodd" clip-rule="evenodd" d="M23.6643 5.53418L22.6846 6.01826L44.5643 31.4709V31.1482C44.5643 30.9023 44.7295 30.5796 44.8908 30.3337L23.6643 5.53418ZM48.9517 35.0516L48.2986 35.4588C48.2218 35.4588 48.1411 35.5357 48.0566 35.5357L68.8759 59.855C69.1021 59.5656 69.2681 59.2338 69.3638 58.8791L48.9517 35.0516Z" fill="white"/>
<path fill-rule="evenodd" clip-rule="evenodd" d="M22.9304 5.9375L21.9546 6.42542L44.5604 32.7733V31.1481L22.9304 5.9375ZM46.6735 35.1322L68.3034 60.4235C68.5493 60.2583 68.7952 59.9356 69.0372 59.6935L48.2217 35.4588C48.0424 35.5394 47.8479 35.5812 47.6512 35.5812C47.4545 35.5812 47.2601 35.5394 47.0807 35.4588L46.6735 35.1322Z" fill="white"/>
<path fill-rule="evenodd" clip-rule="evenodd" d="M22.1965 6.34473L21.2207 6.83265L67.5772 60.8307L68.2304 60.5042L68.4724 60.2583L47.169 35.4587H47.0845L45.2173 34.3177C45.0521 34.2409 44.9714 34.0757 44.81 33.9105C44.6448 33.6684 44.6448 33.5071 44.5642 33.3419V32.4467L22.1965 6.34473Z" fill="white"/>
<path fill-rule="evenodd" clip-rule="evenodd" d="M21.4666 6.75195L20.4907 7.23988L66.8434 61.2341L67.7386 60.7462L21.4666 6.75195Z" fill="white"/>
<path fill-rule="evenodd" clip-rule="evenodd" d="M20.7329 7.07471L19.7571 7.56263L66.1943 61.6414L67.0856 61.1535L20.7329 7.07471Z" fill="white"/>
<path fill-rule="evenodd" clip-rule="evenodd" d="M20.0029 7.48193L19.0271 7.96986L65.4605 62.0486L66.3556 61.5607L20.0029 7.48193Z" fill="white"/>
<path fill-rule="evenodd" clip-rule="evenodd" d="M19.2691 7.88916L18.2932 8.37708L64.7343 62.4559L65.6256 61.9679L19.2691 7.88916Z" fill="white"/>
<path fill-rule="evenodd" clip-rule="evenodd" d="M18.4584 8.29639L17.5632 8.78431L63.9966 62.9438L64.8918 62.3752L18.4584 8.29639Z" fill="white"/>
<path fill-rule="evenodd" clip-rule="evenodd" d="M17.7248 8.70361L16.8296 9.19154L63.2668 63.351L64.1581 62.7824L17.7248 8.70361Z" fill="white"/>
<path fill-rule="evenodd" clip-rule="evenodd" d="M16.9948 9.10742L16.0996 9.59919L62.6137 63.7586L63.5088 63.1862L16.9948 9.10742Z" fill="white"/>
<path fill-rule="evenodd" clip-rule="evenodd" d="M16.2609 9.43359L15.3657 9.92152L61.8836 64.1616L62.7788 63.593L16.2609 9.43359Z" fill="white"/>
<path fill-rule="evenodd" clip-rule="evenodd" d="M15.5309 9.84082L14.6357 10.3287L61.1498 64.5689L62.0449 64.081L15.5309 9.84082Z" fill="white"/>
<path fill-rule="evenodd" clip-rule="evenodd" d="M14.797 10.248L13.9019 10.736L36.5115 37.0838L37.2415 37.5717C37.568 37.7331 37.8946 38.1403 37.8946 38.5476V38.6283L60.4197 64.9761L61.3149 64.4882L14.797 10.248Z" fill="white"/>
<path fill-rule="evenodd" clip-rule="evenodd" d="M14.067 10.6553L13.1719 11.1432L34.3946 35.9466L37.0801 37.4065L14.067 10.6553ZM37.8101 38.3017C37.8101 38.3862 37.8946 38.4669 37.8946 38.5476V39.9307L59.6859 65.3833L60.5811 64.8954L37.8101 38.3017Z" fill="white"/>
<path fill-rule="evenodd" clip-rule="evenodd" d="M13.3334 11.0625L12.4382 11.5504L32.2817 34.7248L34.9672 36.1886L13.3334 11.0625ZM37.8947 39.6079V41.1485L59.0368 65.7906L59.932 65.3026L37.8947 39.6079Z" fill="white"/>
<path fill-rule="evenodd" clip-rule="evenodd" d="M12.5996 11.4663L11.7083 11.9542L30.2493 33.5074L32.8503 34.9673L12.5996 11.4663ZM37.8947 40.8262V42.4513L58.303 66.1944L59.1981 65.7103L37.8947 40.8262Z" fill="white"/>
<path fill-rule="evenodd" clip-rule="evenodd" d="M11.8695 11.7964L10.9744 12.2805L28.1362 32.2853L30.7372 33.8298L11.8695 11.7964ZM37.8946 42.1244V43.6689L57.5729 66.6051L58.4681 66.1134L37.8946 42.1244Z" fill="white"/>
<path fill-rule="evenodd" clip-rule="evenodd" d="M11.1396 12.1997L10.2444 12.6876L26.0193 31.0673L28.6241 32.6118L11.1396 12.1997ZM37.8946 43.3461V44.8905L56.8391 67.0084L57.7343 66.5205L37.8946 43.3461Z" fill="white"/>
<path fill-rule="evenodd" clip-rule="evenodd" d="M10.4097 12.6035L9.51074 13.0953L23.9064 29.9267L26.5074 31.3905L10.4097 12.6035ZM37.8948 44.5682V46.1934L56.1055 67.4968L57.0045 66.9282L37.8948 44.5682Z" fill="white"/>
<path fill-rule="evenodd" clip-rule="evenodd" d="M9.67593 13.0146L8.78076 13.5026L21.7933 28.7089L24.3943 30.1688L9.67593 13.0146ZM37.8948 45.863V47.4113L55.46 67.9041L56.3513 67.3355L37.8948 45.863Z" fill="white"/>
<path fill-rule="evenodd" clip-rule="evenodd" d="M8.94204 13.418L8.04688 13.9059L19.6763 27.4871L22.3618 28.9508L8.94204 13.418ZM37.8947 47.0847V48.6329L54.7261 68.3112L55.6213 67.7426L37.8947 47.0847Z" fill="white"/>
<path fill-rule="evenodd" clip-rule="evenodd" d="M8.21548 13.8281L7.32031 14.316L17.5667 26.2721L20.2484 27.8165L8.21548 13.8281ZM29.5189 40.176L31.6319 42.6156V41.7204C31.6319 41.5591 31.4706 41.317 31.3092 41.2325L29.5189 40.176ZM37.8943 48.3093V49.9344L53.9996 68.7214L54.8909 68.1528L37.8943 48.3093Z" fill="white"/>
<path fill-rule="evenodd" clip-rule="evenodd" d="M7.47891 14.1484L6.58374 14.6364L15.4509 25.0479L18.1325 26.5886L7.47891 14.1484ZM27.4031 38.9518L31.6292 43.8311V42.2866L30.0886 40.4963L27.4031 38.9518ZM37.8915 49.6055V51.1499L53.263 69.1224L54.1581 68.6344L37.8915 49.6055Z" fill="white"/>
<path fill-rule="evenodd" clip-rule="evenodd" d="M6.74893 14.5557L5.85376 15.0436L13.4146 23.9069L16.0195 25.3668L6.74893 14.5557ZM25.29 37.8108L31.6292 45.1296V43.5852L27.9717 39.2745L25.29 37.8108ZM37.8915 50.8233V52.3678L52.5292 69.5258L53.4243 69.0378L37.8915 50.8233Z" fill="white"/>
<path fill-rule="evenodd" clip-rule="evenodd" d="M6.01528 14.9629L5.12012 15.4508L11.3056 22.6851L13.9027 24.1489L6.01528 14.9629ZM23.2578 36.5929L31.6332 46.3513V44.8069L25.8549 38.0566L23.2578 36.5929ZM37.8955 52.1257V53.6702L51.88 69.933L52.7752 69.4451L37.8955 52.1257Z" fill="white"/>
<path fill-rule="evenodd" clip-rule="evenodd" d="M5.2853 15.3662L4.39014 15.8541L9.18869 21.4672L11.7897 22.9271L5.2853 15.3662ZM21.1409 35.3711L31.6293 47.5691V46.0247L23.7495 36.9193L21.1409 35.3711ZM37.8916 53.3435V54.888L51.1462 70.3401L52.0452 69.8522L37.8916 53.3435Z" fill="white"/>
<path fill-rule="evenodd" clip-rule="evenodd" d="M4.55142 15.7734L3.65625 16.2614L7.07555 20.2454L9.67653 21.7937L4.55142 15.7734ZM19.0277 34.1532L31.6292 48.8715V47.3271L21.6287 35.6976L19.0277 34.1532ZM37.8915 54.5652V56.1097L50.4162 70.7474L51.3113 70.2594L37.8915 54.5652Z" fill="white"/>
<path fill-rule="evenodd" clip-rule="evenodd" d="M3.82144 16.1807L2.92627 16.6686L4.96248 19.0275L7.64414 20.572L3.82144 16.1807ZM16.9147 33.0159L31.6292 50.0932V48.5449L19.5156 34.4797L16.9147 33.0159ZM37.8915 55.8638V57.4121L49.6862 71.1546L50.5814 70.6667L37.8915 55.8638Z" fill="white"/>
<path fill-rule="evenodd" clip-rule="evenodd" d="M3.08766 16.5073L2.11182 16.9952L2.84178 17.8904L5.53112 19.3503L3.08766 16.5073ZM14.7978 31.7981L31.6331 51.3919V49.7668L17.4795 33.2581L14.7978 31.7981ZM37.8954 57.0856V58.6301L48.9524 71.6426L49.8476 71.074L37.8954 57.0856Z" fill="white"/>
<path fill-rule="evenodd" clip-rule="evenodd" d="M2.35767 16.9146L1.78906 17.2373L3.41419 18.1324L2.35767 16.9146ZM12.6847 30.5764L31.633 52.6136V51.0692L15.3664 32.117L12.6847 30.5764ZM37.8954 58.3035V59.9325L48.3031 72.0498L49.1983 71.4774L37.8954 58.3035Z" fill="white"/>
<path fill-rule="evenodd" clip-rule="evenodd" d="M10.6523 29.3545L31.6292 53.8313V52.2869L13.2533 30.8989L10.6523 29.3545ZM37.8915 59.6057V61.1502L47.5731 72.4531L48.4645 71.8845L37.8915 59.6057Z" fill="white"/>
<path fill-rule="evenodd" clip-rule="evenodd" d="M8.5354 28.2173L31.633 55.1337V53.5086L11.1402 29.6811L8.5354 28.2173ZM37.8953 60.8274V62.3719L46.8393 72.8603L47.7344 72.2917L37.8953 60.8274Z" fill="white"/>
<path fill-rule="evenodd" clip-rule="evenodd" d="M6.42236 26.9956L31.633 56.3517V54.8072L9.02334 28.4594L6.42236 26.9956ZM37.8953 62.0454V63.6705L46.1016 73.2676L46.9968 72.7797L37.8953 62.0454Z" fill="white"/>
<path fill-rule="evenodd" clip-rule="evenodd" d="M4.3125 25.7812L31.6362 57.5769V56.0325L6.91348 27.3257L4.3125 25.7812ZM37.8985 63.3513V64.8958L45.3787 73.6784L46.2739 73.1905L37.8985 63.3513Z" fill="white"/>
<path fill-rule="evenodd" clip-rule="evenodd" d="M2.19531 24.5625L31.6359 58.8823V57.334L4.80013 26.1069L2.19531 24.5625ZM37.8982 64.5722V66.1166L44.7291 74.0886L45.6205 73.6007L37.8982 64.5722Z" fill="white"/>
<path fill-rule="evenodd" clip-rule="evenodd" d="M0.0819669 23.4219L31.6356 60.0968V58.5523L2.76746 24.8856L0.078125 23.4219H0.0819669ZM37.8979 65.7905V67.4156L43.995 74.4924L44.8902 74.0045L37.8979 65.7905Z" fill="white"/>
<path fill-rule="evenodd" clip-rule="evenodd" d="M0 23.3438V24.481L31.6343 61.3211V59.7728L0.649283 23.6703L0 23.3438ZM37.8966 67.0916V68.0675C37.8929 68.2188 37.8342 68.3636 37.7314 68.4747L43.2638 74.8984L44.1551 74.4105L37.8928 67.0916H37.8966Z" fill="white"/>
<path fill-rule="evenodd" clip-rule="evenodd" d="M0 24.1484V25.7774L31.6343 62.6137V61.0692L0 24.1484ZM37.8121 68.3074C37.7353 68.634 37.4894 68.9605 37.2435 69.0373L37.1667 69.1219L42.53 75.2997L43.4251 74.8117L37.816 68.3074H37.8121Z" fill="white"/>
<path fill-rule="evenodd" clip-rule="evenodd" d="M0 25.4531V26.9976L31.6343 63.8377V62.2932L0 25.4531ZM37.3242 68.9628C37.3242 69.0435 37.3242 69.0435 37.2473 69.0435L36.4329 69.5314L41.8 75.713L42.6913 75.2251L37.3242 68.9628Z" fill="white"/>
<path fill-rule="evenodd" clip-rule="evenodd" d="M0 26.6797V28.2241L31.6343 65.0604V63.5159L0 26.6797ZM36.6749 69.371L35.6991 69.9396L41.1469 76.2019L42.0421 75.6333L36.6749 69.371Z" fill="white"/>
<path fill-rule="evenodd" clip-rule="evenodd" d="M0 27.9766V29.521L31.6343 66.3611V64.8167L0 27.9766ZM35.9449 69.7766L35.3725 70.1031C35.2111 70.18 35.0498 70.18 34.8846 70.18L40.4169 76.6075L41.3121 76.0389L35.9449 69.7766Z" fill="white"/>
<path fill-rule="evenodd" clip-rule="evenodd" d="M0 29.1953V30.7359L31.6343 67.5722V66.0277L0 29.1953ZM33.4246 69.7698L39.687 77.0079L40.5783 76.4393L35.1305 70.177C35.0498 70.177 34.8846 70.2538 34.8039 70.2538H34.7271C34.4812 70.2538 34.316 70.177 34.1508 70.0963L33.4208 69.7698H33.4246Z" fill="white"/>
<path fill-rule="evenodd" clip-rule="evenodd" d="M0 30.4141V32.043L38.9532 77.416L39.8483 76.8474L33.9932 70.0165L32.2029 69.0407C32.0308 68.9422 31.8877 68.8002 31.7879 68.6289C31.6881 68.4576 31.6351 68.2631 31.6343 68.0648V67.2542L0 30.4141Z" fill="white"/>
<path fill-rule="evenodd" clip-rule="evenodd" d="M0 31.7188V33.2632L38.2193 77.8294L39.1145 77.3376L0 31.7188Z" fill="white"/>
<path fill-rule="evenodd" clip-rule="evenodd" d="M0 32.9375V34.4858L37.4894 78.2337L38.3846 77.7457L0 32.9375Z" fill="white"/>
<path fill-rule="evenodd" clip-rule="evenodd" d="M0 34.1562V35.7814L36.8363 78.6379L37.7314 78.15L0 34.1562Z" fill="white"/>
<path fill-rule="evenodd" clip-rule="evenodd" d="M0 35.4609V37.0054L36.1063 79.0474L37.0015 78.5595L0 35.4609Z" fill="white"/>
<path fill-rule="evenodd" clip-rule="evenodd" d="M0 36.6797V38.2241L35.2918 79.371C35.5377 79.2942 35.7797 79.2097 36.0218 79.129L36.2677 78.9676L0 36.6797Z" fill="white"/>
<path fill-rule="evenodd" clip-rule="evenodd" d="M0 37.8984V39.5236L34.2353 79.3719H34.7232C34.9691 79.3719 35.2111 79.3719 35.4532 79.2874L0 37.8984Z" fill="white"/>
<path fill-rule="evenodd" clip-rule="evenodd" d="M0 39.1953V40.7398L32.3643 78.475L33.5053 79.1243C33.7474 79.2857 34.1546 79.3702 34.4812 79.3702L0 39.1953Z" fill="white"/>
<path fill-rule="evenodd" clip-rule="evenodd" d="M0 40.4219V41.9663L30.2512 77.2581L32.9329 78.8026L0 40.4219Z" fill="white"/>
<path fill-rule="evenodd" clip-rule="evenodd" d="M0 41.7188V43.267L28.1382 76.0386L30.8198 77.583L0 41.7188Z" fill="white"/>
<path fill-rule="evenodd" clip-rule="evenodd" d="M0 42.9375V44.482L26.0213 74.8139L28.6261 76.3583L0 42.9375Z" fill="white"/>
<path fill-rule="evenodd" clip-rule="evenodd" d="M0 44.1562V45.7045L23.9082 73.5968L26.5092 75.1413L0 44.1562Z" fill="white"/>
<path fill-rule="evenodd" clip-rule="evenodd" d="M0 45.4609V47.0054L21.7106 72.2967L24.3961 73.8411L0 45.4609Z" fill="white"/>
<path fill-rule="evenodd" clip-rule="evenodd" d="M0 46.6797V48.2241L19.5976 71.0758L22.2831 72.6203L0 46.6797Z" fill="white"/>
<path fill-rule="evenodd" clip-rule="evenodd" d="M0 47.8984V49.4429L17.4807 69.855L20.17 71.3994L0 47.8984Z" fill="white"/>
<path fill-rule="evenodd" clip-rule="evenodd" d="M0 49.2031V50.7476L15.3677 68.6394L18.0531 70.1838L0 49.2031Z" fill="white"/>
<path fill-rule="evenodd" clip-rule="evenodd" d="M0 50.4219V51.9663L13.2546 67.4185L15.9401 68.9629L0 50.4219Z" fill="white"/>
<path fill-rule="evenodd" clip-rule="evenodd" d="M0 51.6406V53.2696L11.1415 66.2015L13.7425 67.7459L0 51.6406Z" fill="white"/>
<path fill-rule="evenodd" clip-rule="evenodd" d="M0 52.9453V54.4898L8.94397 64.9782L11.6295 66.5226L0 52.9453Z" fill="white"/>
<path fill-rule="evenodd" clip-rule="evenodd" d="M0 54.1641V55.7085L6.83092 63.7612L9.51258 65.2211L0 54.1641Z" fill="white"/>
<path fill-rule="evenodd" clip-rule="evenodd" d="M0 55.3828V57.0118L4.71787 62.4596L7.39952 64.0041L0 55.3828Z" fill="white"/>
<path fill-rule="evenodd" clip-rule="evenodd" d="M0 56.6797V58.2241L2.60098 61.2324L5.28647 62.7806L0 56.6797Z" fill="white"/>
<path fill-rule="evenodd" clip-rule="evenodd" d="M0 57.8984V58.3057C0 59.1202 0.568603 60.096 1.21789 60.5033L3.16958 61.5598L0 57.9023V57.8984Z" fill="white"/>
<path fill-rule="evenodd" clip-rule="evenodd" d="M0.484375 59.7734C0.645735 59.9386 0.726415 60.1 0.891618 60.1807L0.484375 59.7734Z" fill="white"/>
</svg>
