<svg width="140" height="47" viewBox="0 0 140 47" fill="none" xmlns="http://www.w3.org/2000/svg">
<path d="M0.522727 47V0.454544H32.2955V9.59091H11.7727V19.1364H30.2727V28.2955H11.7727V47H0.522727ZM36.4375 9.59091V0.454544H75.7784V9.59091H61.6648V47H50.5739V9.59091H36.4375ZM92.5227 0.454544V47H81.2727V0.454544H92.5227ZM116.79 47H99.5852V0.454544H116.767C121.509 0.454544 125.593 1.38636 129.017 3.25C132.456 5.09848 135.108 7.76515 136.972 11.25C138.835 14.7197 139.767 18.8712 139.767 23.7045C139.767 28.553 138.835 32.7197 136.972 36.2045C135.123 39.6894 132.479 42.3636 129.04 44.2273C125.6 46.0758 121.517 47 116.79 47ZM110.835 37.4091H116.358C118.964 37.4091 121.169 36.9697 122.972 36.0909C124.79 35.197 126.161 33.75 127.085 31.75C128.025 29.7348 128.494 27.053 128.494 23.7045C128.494 20.3561 128.025 17.6894 127.085 15.7045C126.146 13.7045 124.759 12.2652 122.926 11.3864C121.108 10.4924 118.866 10.0455 116.199 10.0455H110.835V37.4091Z" fill="white"/>
</svg>
