<svg width="56" height="56" viewBox="0 0 56 56" fill="none" xmlns="http://www.w3.org/2000/svg">
<path d="M0 28.97C0.19 32.64 1.09 36.12 2.56 39.27C15.71 40.84 29.41 34.96 37.02 23.33C40.47 18.3 42.87 10.48 42.08 3.64C39.06 1.82 35.66 0.56 32.05 0C36.74 11.1 32.77 27.91 18.25 26.81C12.49 26.39 5.84 18.99 9.65 13.11C12.28 9.61 21.27 5.65 21.14 13.31C18.27 10.44 14.67 16.53 16.05 19.24C18.31 22.77 24.81 20.39 26.63 17.99C28.67 15.58 28.5 11.12 27.96 8.16C26.95 3.39 23.22 1.66 19.05 1.08C11.7 3.51 5.75 8.89 2.55 15.78C4.75 21.82 7.3 27.75 13.09 31.25C8.88 31.86 4.26 30.55 0 28.97Z" fill="url(#paint0_linear_0_499)"/>
<path d="M9.70312 48.6384C14.3231 52.5984 20.2331 55.0584 26.6831 55.3084C34.4331 47.9384 42.1331 39.7684 46.2031 29.7784C48.0931 25.2684 50.3431 19.0484 51.4131 12.8084C50.2431 10.9284 48.8531 9.19844 47.2831 7.64844C46.9131 16.8684 42.3331 27.3284 37.1631 32.4584C29.9031 39.5484 20.1431 45.1384 9.70312 48.6384Z" fill="url(#paint1_linear_0_499)"/>
<path d="M45 52.25C52.11 46.96 56.58 38.38 56.21 28.85C56.09 25.73 55.47 22.76 54.42 20C53.88 25.67 53.4 31.61 51.68 36.89C50.05 42.31 47.91 47.43 45 52.25Z" fill="url(#paint2_linear_0_499)"/>
<defs>
<linearGradient id="paint0_linear_0_499" x1="-21.2669" y1="4.28839e-05" x2="93.66" y2="28.3642" gradientUnits="userSpaceOnUse">
<stop stop-color="#FFCA66"/>
<stop offset="0.50649" stop-color="#B6499B"/>
<stop offset="1" stop-color="#5586C5"/>
</linearGradient>
<linearGradient id="paint1_linear_0_499" x1="-11.3014" y1="7.64849" x2="104.395" y2="31.0336" gradientUnits="userSpaceOnUse">
<stop stop-color="#FFCA66"/>
<stop offset="0.50649" stop-color="#B6499B"/>
<stop offset="1" stop-color="#5586C5"/>
</linearGradient>
<linearGradient id="paint2_linear_0_499" x1="39.3441" y1="20" x2="71.5622" y2="22.5914" gradientUnits="userSpaceOnUse">
<stop stop-color="#FFCA66"/>
<stop offset="0.50649" stop-color="#B6499B"/>
<stop offset="1" stop-color="#5586C5"/>
</linearGradient>
</defs>
</svg>
