<svg width="18" height="19" viewBox="0 0 18 19" fill="none" xmlns="http://www.w3.org/2000/svg">
<path fill-rule="evenodd" clip-rule="evenodd" d="M5.78809 1.89964C5.53042 2.36081 5.5072 2.90387 5.72545 3.38917C7.48463 7.30095 7.82333 8.40756 7.45285 9.02867C7.20908 9.43478 6.71278 9.63043 5.0241 10.2532C4.23866 10.5415 3.2329 10.9107 1.93236 11.4317C1.4136 11.6395 1.02276 12.0529 0.861983 12.5647C0.712836 13.0403 0.785149 13.5546 1.05994 13.9794C3.403 17.5941 8.0123 19.0545 12.0186 17.4497C16.4635 15.6691 18.4855 10.6764 16.5265 6.3204C14.9731 2.86626 10.755 0.479578 7.12406 1.00128C6.55762 1.08395 6.05926 1.41833 5.78809 1.89964ZM7.28967 2.45621C7.31879 2.44455 7.34952 2.43645 7.38185 2.43192C10.3781 2.00126 13.8679 3.99118 15.1614 6.86725C16.7886 10.4855 15.1091 14.6325 11.4168 16.1115C8.08856 17.4448 4.2622 16.235 2.31775 13.2344C2.30208 13.2091 2.25443 13.1366 2.29015 13.0202C2.32463 12.9106 2.41582 12.8172 2.53413 12.7698C3.81829 12.2554 4.81131 11.8913 5.58634 11.6061C7.46378 10.9183 8.23932 10.6318 8.749 9.77807C9.47816 8.5581 9.02608 7.17927 7.36976 3.46538L7.0906 2.84231C7.0569 2.76738 7.06159 2.69181 7.10465 2.6156C7.14436 2.5439 7.21049 2.48793 7.28967 2.45621Z" fill="white" fill-opacity="0.2"/>
</svg>
