<svg width="20" height="17" viewBox="0 0 20 17" fill="none" xmlns="http://www.w3.org/2000/svg">
<path d="M0.666504 8.1798C0.666504 7.73682 0.995683 7.37072 1.42277 7.31278L1.5415 7.3048L16.9228 7.3055L11.366 1.77138C11.0236 1.43041 11.0224 0.876388 11.3633 0.533943C11.6733 0.222631 12.1594 0.193343 12.5025 0.446769L12.6008 0.531279L19.6591 7.55928C19.7043 7.60423 19.7435 7.65287 19.7767 7.70424C19.7861 7.7197 19.7957 7.73552 19.8048 7.75165C19.8131 7.76548 19.8207 7.77985 19.8278 7.79437C19.8376 7.8155 19.8473 7.83732 19.8561 7.8596C19.8632 7.87677 19.8691 7.89347 19.8745 7.91031C19.881 7.93118 19.8873 7.95343 19.8926 7.97601C19.8966 7.99178 19.8998 8.00696 19.9026 8.0222C19.9065 8.04487 19.9098 8.06832 19.9122 8.09206C19.9142 8.11017 19.9154 8.1281 19.9161 8.14606C19.9163 8.15695 19.9165 8.16835 19.9165 8.1798L19.9161 8.21369C19.9154 8.23086 19.9142 8.24802 19.9125 8.26514L19.9165 8.1798C19.9165 8.23501 19.9114 8.28903 19.9016 8.34141C19.8993 8.35392 19.8966 8.36677 19.8936 8.37956C19.8874 8.4059 19.8802 8.43126 19.872 8.45613C19.8679 8.46848 19.8632 8.48168 19.8581 8.49479C19.8479 8.52112 19.8368 8.54621 19.8246 8.57066C19.8189 8.58216 19.8125 8.59419 19.8059 8.60611C19.7949 8.62554 19.7837 8.64401 19.7717 8.66201C19.7633 8.67475 19.754 8.68801 19.7443 8.70106L19.7367 8.71115C19.7132 8.74195 19.6876 8.77113 19.6602 8.79851L19.6592 8.79933L12.6008 15.8285C12.2584 16.1695 11.7044 16.1683 11.3634 15.8259C11.0534 15.5146 11.0262 15.0285 11.281 14.6865L11.366 14.5885L16.9205 9.0555L1.5415 9.0548C1.05825 9.0548 0.666504 8.66304 0.666504 8.1798Z" fill="white"/>
</svg>
