<svg width="258" height="54" viewBox="0 0 258 54" fill="none" xmlns="http://www.w3.org/2000/svg">
<path d="M96.1117 41.4861C95.4593 41.4861 94.7604 41.2065 94.1081 40.9735C90.9863 40.0883 88.6566 37.5256 87.9577 34.3572C87.1656 31.3752 87.3986 28.1602 88.6566 25.3645C89.9613 22.1962 93.0365 20.0994 96.4844 20.0528C98.8607 19.7733 101.237 20.4256 103.147 21.87C105.85 23.9667 107.248 27.2749 106.968 30.6763C106.875 31.6547 106.083 32.4468 105.058 32.54H92.1512C92.4307 35.0561 94.4809 37.013 97.0435 37.1994C99.1403 37.4324 101.284 37.1062 103.194 36.1744C103.893 35.7084 104.778 35.7084 105.477 36.1744C106.083 36.5471 106.456 37.1994 106.456 37.8983C106.456 38.5972 106.083 39.2495 105.477 39.6223C103.939 40.5542 102.262 41.1599 100.491 41.3929C100.491 41.3929 100.259 41.3929 100.212 41.3929L96.1117 41.4861ZM97.2299 28.6261H102.029C102.495 28.6261 102.542 28.6261 102.448 28.067C101.936 25.6441 99.8392 23.9201 97.3697 23.9201C94.9002 23.9201 92.8035 25.6441 92.291 28.067C92.291 28.4397 92.291 28.5329 92.7103 28.5329L97.2299 28.6261ZM124.767 41.4861C124.301 41.3929 123.835 41.2531 123.416 41.0667C121.179 40.3212 119.548 38.3643 119.269 36.0346C118.989 33.7049 120.061 31.3752 122.018 30.1171C123.556 29.1387 125.373 28.5795 127.19 28.5329C128.914 28.5329 130.638 28.5329 132.362 28.5329C132.781 28.5329 132.921 28.5329 132.874 27.9738C132.874 26.9953 132.455 26.0634 131.756 25.4111C131.057 24.7588 130.079 24.3861 129.147 24.4793C127.19 24.3861 125.28 24.6656 123.416 25.318C122.717 25.5975 121.925 25.5043 121.366 25.0384C120.806 24.5724 120.527 23.8735 120.62 23.1746C120.713 22.4757 121.179 21.87 121.832 21.5904C123.789 20.7051 125.839 20.2392 127.982 20.0994C129.566 19.913 131.197 20.146 132.688 20.7051C135.53 21.7768 137.394 24.5258 137.394 27.5545C137.394 31.3752 137.394 35.1959 137.394 39.0166C137.441 40.228 136.555 41.2531 135.344 41.2997C134.179 41.4861 133.061 40.6474 132.874 39.4825C132.874 39.4359 132.874 39.3427 132.874 39.2961L132.222 39.7155C131.011 40.6008 129.566 41.1599 128.075 41.3929C128.075 41.3929 128.075 41.3929 127.889 41.3929L124.767 41.4861ZM130.358 32.3071H129.054C127.749 32.3071 126.398 32.4934 125.14 32.9594C124.348 33.2389 123.835 33.9844 123.835 34.7765C123.789 35.3823 123.928 35.988 124.348 36.4539C124.72 36.9199 125.28 37.246 125.885 37.2926C128.075 37.7119 130.358 37.1062 132.036 35.6152C132.595 35.2891 132.921 34.6367 132.828 33.9378C132.781 33.5651 132.781 33.2389 132.828 32.8662C132.828 32.3536 132.828 32.2605 132.222 32.3071H130.358ZM206.772 41.4861C206.027 41.2531 205.188 41.1599 204.489 40.8803C201.135 39.6223 198.758 36.5937 198.339 33.0526C197.78 30.3035 198.199 27.4613 199.504 25.0384C201.041 22.1496 203.977 20.2392 207.238 20.0528C209.568 19.7733 211.991 20.1926 214.041 21.3575C216.744 22.9417 218.561 25.7373 218.84 28.9057C219.26 31.3752 218.887 33.9378 217.769 36.2209C216.417 39.0632 213.715 41.0667 210.547 41.4395C210.547 41.4395 210.267 41.4395 210.174 41.4395L206.772 41.4861ZM214.321 30.4899C214.321 29.8376 214.227 29.1853 214.088 28.5795C213.575 26.2498 211.665 24.5258 209.288 24.2463C206.679 23.7337 204.117 25.1782 203.138 27.6477C202.579 29.0455 202.439 30.5365 202.672 31.9809C202.765 34.2174 204.21 36.1744 206.353 36.8733C208.59 37.7586 211.106 37.1994 212.736 35.4288C213.948 34.0776 214.507 32.3071 214.321 30.4899ZM248.101 41.4861C247.076 41.2997 246.051 41.0201 245.026 40.7406C244.327 40.5076 243.628 40.1814 242.929 39.8553C241.951 39.3893 241.532 38.2245 241.997 37.246C242.137 36.7335 242.51 36.3607 242.976 36.1278C243.442 35.8948 244.001 35.8948 244.467 36.0812C245.585 36.5471 246.703 36.8733 247.868 37.1062C249.173 37.3858 250.524 37.3858 251.829 37.1062C252.668 37.0131 253.366 36.3607 253.599 35.522C253.693 35.2891 253.693 34.9629 253.553 34.7299C253.413 34.497 253.227 34.3106 252.947 34.2174C251.549 33.6117 250.105 33.1457 248.614 32.9128C247.356 32.6332 246.144 32.1673 244.979 31.6081C242.696 30.5365 241.438 27.9738 242.044 25.4577C242.463 22.8019 244.607 20.7517 247.263 20.379C250.151 19.7733 253.133 20.0528 255.836 21.1245C256.535 21.3575 257.047 21.9632 257.141 22.6621C257.28 23.361 257.001 24.1065 256.488 24.5724C255.929 25.0384 255.184 25.1782 254.485 24.9452C252.994 24.4793 251.409 24.2463 249.825 24.3395C248.987 24.3395 248.194 24.5259 247.449 24.8986C247.076 25.085 246.75 25.4111 246.517 25.7373C246.331 26.0169 246.284 26.3896 246.331 26.7624C246.424 27.0885 246.61 27.4147 246.936 27.6011C247.775 28.067 248.66 28.3932 249.592 28.5795C251.177 28.9057 252.761 29.3716 254.298 29.9774C255.929 30.5831 257.141 31.9343 257.7 33.5651C258.259 35.1959 258.026 37.013 257.094 38.4575C255.976 40.1814 254.112 41.2997 252.062 41.5327C252.062 41.5327 251.736 41.5327 251.642 41.5327H248.101V41.4861ZM157.429 41.4861C156.963 41.3463 156.497 41.2531 156.032 41.2065C154.774 40.9269 153.515 40.5076 152.351 39.9019C151.838 39.7155 151.465 39.2961 151.232 38.7836C151.046 38.2711 151.046 37.7119 151.279 37.1994C151.465 36.6869 151.838 36.2675 152.351 36.0812C152.863 35.8948 153.422 35.8948 153.888 36.1278C154.96 36.5937 156.032 36.9199 157.15 37.1062C158.454 37.3858 159.759 37.3858 161.064 37.1062C161.809 37.0131 162.415 36.5005 162.741 35.8482C162.927 35.522 162.974 35.1493 162.834 34.8231C162.694 34.497 162.415 34.2174 162.089 34.1242C161.157 33.7049 160.225 33.4253 159.247 33.1923C157.616 32.8662 155.985 32.3536 154.447 31.6547C152.77 30.9092 151.605 29.3716 151.372 27.5545C151.046 25.9237 151.465 24.1997 152.444 22.8485C153.422 21.4972 154.913 20.612 156.591 20.379C159.48 19.7733 162.508 20.0528 165.257 21.1245C166.236 21.5904 166.702 22.7087 166.329 23.7338C166.142 24.2463 165.77 24.6656 165.304 24.9452C164.791 25.1782 164.232 25.2248 163.72 24.9918C162.182 24.5258 160.551 24.3395 158.967 24.3861C158.035 24.3395 157.103 24.619 156.311 25.1316C155.752 25.3645 155.426 25.9703 155.472 26.576C155.519 27.1817 155.938 27.6942 156.544 27.834C157.989 28.4397 159.526 28.8591 161.064 29.1387C162.508 29.4182 163.859 30.0239 165.071 30.8626C166.608 32.1207 167.4 34.031 167.168 35.988C166.981 37.9449 165.77 39.6689 163.999 40.5542C163.114 41.0201 162.182 41.2997 161.203 41.4861C161.203 41.4861 160.971 41.4861 160.924 41.4861H157.429ZM186.551 41.4861L184.78 41.0667C180.633 39.8553 177.651 36.1744 177.372 31.8877C177.092 29.1853 177.791 26.4828 179.375 24.2929C181.192 21.8234 184.035 20.3324 187.11 20.146C189.626 19.8665 192.188 20.4256 194.378 21.7768C195.124 22.2427 195.776 22.7087 195.776 23.6872C195.869 24.4327 195.497 25.2248 194.844 25.5975C194.192 26.0169 193.353 25.9703 192.701 25.5509C191.816 25.0384 190.837 24.6656 189.812 24.4793C187.529 23.9667 185.153 24.619 183.429 26.2498C181.332 28.8125 181.239 32.4468 183.196 35.1493C184.407 36.5937 186.271 37.3858 188.181 37.2926C189.626 37.3392 191.024 36.9664 192.282 36.2675L192.794 36.0346C193.26 35.8016 193.819 35.755 194.285 35.8948C194.798 36.0346 195.217 36.4073 195.45 36.8733C196.009 37.8052 195.73 39.0166 194.798 39.6223C193.4 40.6008 191.816 41.2065 190.138 41.4395C190.138 41.4395 189.859 41.4395 189.812 41.4395L186.551 41.4861ZM110.975 26.4828V14.0422C110.929 13.2501 111.255 12.5512 111.907 12.0853C112.513 11.6193 113.351 11.5261 114.05 11.8057C114.796 12.0387 115.355 12.691 115.448 13.4831C115.495 13.716 115.495 13.9956 115.448 14.2286C115.448 22.4291 115.448 30.6297 115.448 38.737C115.541 39.4825 115.262 40.1814 114.703 40.694C114.144 41.1599 113.398 41.3463 112.653 41.2065C111.721 41.0667 110.975 40.2746 110.929 39.2961C110.929 38.97 110.929 38.6904 110.929 38.3643L110.975 26.4828ZM223.08 26.4828V14.0422C223.08 12.7842 224.105 11.7591 225.363 11.7591C226.621 11.7591 227.647 12.7842 227.647 14.0422C227.647 15.0673 227.647 16.1389 227.647 17.1174V38.737C227.74 39.4359 227.46 40.1349 226.948 40.6008C226.435 41.0667 225.736 41.2997 225.037 41.2065C223.919 41.1133 223.08 40.1814 223.127 39.0632C223.127 37.7585 223.127 36.4073 223.127 35.1493V26.4828H223.08ZM78.2662 22.6621C79.0583 21.7768 80.0367 21.0313 81.155 20.5654C82.1335 20.146 83.1585 19.9596 84.2302 20.0528C85.395 20.2392 86.2337 21.3575 86.0474 22.5223C86.0008 23.594 85.1155 24.4327 84.0438 24.3861C81.8539 24.3395 79.8038 25.3179 78.4525 27.0419C78.2196 27.2749 78.0798 27.6476 78.0798 27.9738C78.0798 31.6547 78.0798 35.3357 78.0798 39.0166C78.1264 40.1814 77.2877 41.1599 76.1694 41.2997C75.0512 41.4861 73.9795 40.8337 73.6534 39.7621C73.6068 39.4825 73.6068 39.203 73.6534 38.9234V22.6621C73.6068 22.0564 73.7931 21.4507 74.2125 20.9381C74.6318 20.4722 75.191 20.1926 75.7967 20.146C77.0547 20.0994 78.1264 21.0779 78.173 22.3359C78.173 22.4757 78.173 22.5689 78.2662 22.6621ZM233.191 30.7694C233.191 27.9738 233.191 25.1782 233.191 22.3825C233.145 21.2177 234.03 20.2858 235.195 20.1926C236.266 20.0528 237.245 20.6585 237.571 21.6836C237.618 21.9166 237.618 22.1961 237.571 22.4291V39.0166C237.571 40.1348 236.779 41.0667 235.661 41.2065C234.542 41.3929 233.471 40.7406 233.098 39.6689C233.051 39.3893 233.051 39.1098 233.098 38.8302C233.191 36.2209 233.191 33.4719 233.191 30.7694ZM142.566 30.7694V22.4291C142.519 21.4506 143.172 20.5654 144.103 20.2858C145.035 19.9596 146.06 20.2858 146.666 21.0779C146.992 21.5438 147.132 22.1496 147.086 22.7087V29.4648C147.086 32.54 147.086 35.6152 147.086 38.8302C147.132 39.4359 146.946 40.0882 146.526 40.5542C146.107 41.0201 145.548 41.2997 144.896 41.2997C144.243 41.3463 143.638 41.1133 143.172 40.694C142.706 40.2746 142.473 39.6223 142.519 39.0166V30.7694H142.566ZM144.942 12.2716C145.641 12.225 146.34 12.5046 146.806 12.9705C147.318 13.4831 147.551 14.1354 147.505 14.8343C147.505 15.906 146.899 16.8378 145.921 17.2572C144.942 17.6765 143.824 17.4436 143.078 16.6981C142.333 15.9526 142.1 14.8343 142.519 13.8558C142.892 12.8774 143.871 12.2716 144.942 12.2716ZM235.474 12.2716C236.453 12.1784 237.431 12.6444 237.944 13.4831C238.456 14.3218 238.456 15.3934 237.944 16.2321C237.431 17.0708 236.453 17.5368 235.474 17.4436C234.496 17.5368 233.517 17.0708 233.005 16.2321C232.492 15.3934 232.492 14.3218 233.005 13.4831C233.564 12.6444 234.496 12.1784 235.474 12.2716Z" fill="white"/>
<path fill-rule="evenodd" clip-rule="evenodd" d="M27.4984 0H25.553C25.2901 0.0394337 25.0141 0.0657228 24.7512 0.0788674C13.9595 0.788674 4.69261 7.97875 1.30131 18.2446C0.683517 20.1112 0.276036 22.0434 0.092012 24.002C0.0841254 24.0992 0.0757129 24.1965 0.0673005 24.2938C0.0336503 24.6828 0 25.0719 0 25.461V25.6187V27.4984C0.0092548 27.6372 0.0233967 27.7826 0.0378378 27.931C0.064418 28.2042 0.092012 28.4877 0.092012 28.7603C0.236602 30.7451 0.630939 32.7037 1.23559 34.6096C4.08796 43.5216 11.4095 50.2779 20.5055 52.4205C22.2669 52.828 24.0545 53.0514 25.8553 53.0909C36.2001 53.3932 45.7694 47.6622 50.3831 38.3953C51.6318 35.9241 52.4599 33.2689 52.8674 30.5217C52.88 30.435 52.8927 30.3487 52.9054 30.2625C53.0122 29.5381 53.1172 28.8258 53.1172 28.0505V27.8533V25.2638C53.1088 25.1854 53.0997 25.1075 53.0908 25.0299C53.0577 24.7438 53.0252 24.4624 53.0252 24.1728C51.8421 10.8705 40.9584 0.512638 27.6036 0H27.4984ZM23.8194 37.1037L23.7004 37.028L18.4163 32.6115L11.0685 26.4861C10.5847 26.0749 9.97853 25.8528 9.35233 25.8609C9.28899 25.8611 9.22543 25.8636 9.16176 25.8685C9.13264 25.8705 9.10362 25.8731 9.07472 25.876C7.99333 25.9728 7.07412 26.7197 6.74391 27.7611C6.40215 28.839 6.7702 30.022 7.66403 30.7186L17.0098 38.5002L24.7914 45.0068C25.2916 45.4346 25.9138 45.6482 26.5374 45.6476C27.171 45.6552 27.8052 45.4416 28.3134 45.007L32.9008 41.1819L40.8796 34.5308C41.6551 33.8801 42.4339 33.2327 43.2127 32.5854C43.9916 31.938 44.7704 31.2906 45.5459 30.64C46.5054 29.7987 46.7552 28.3922 46.1243 27.275C45.6387 26.4151 44.7483 25.9056 43.8066 25.8902C43.5203 25.8844 43.2293 25.9239 42.944 26.0129C42.4971 26.1838 42.0765 26.4467 41.7347 26.7753L40.4519 27.8525L29.4175 37.0282C29.4175 37.0282 29.3762 37.0695 29.3394 37.0423V37.0149V36.8966V32.112V25.0007V11.0807V10.8703C29.3394 10.7964 29.3382 10.7225 29.3356 10.6486C29.3451 10.3055 29.3247 9.96809 29.2598 9.62182C28.9897 8.36129 27.8637 7.46577 26.5838 7.47719C26.5343 7.47644 26.4845 7.47705 26.4345 7.47905C25.12 7.51849 24.029 8.51747 23.845 9.81879C23.8187 10.3709 23.8187 10.9229 23.845 11.475V18.7571V25.9734V33.3081V36.0685V36.8112L23.8194 37.1037Z" fill="white"/>
</svg>
