<svg width="127" height="139" viewBox="0 0 127 139" fill="none" xmlns="http://www.w3.org/2000/svg">
<path d="M72.6716 39.0317C62.7636 37.2625 56.1337 42.7175 56.1337 51.195V79.6496L40.5534 70.3613V51.195C40.5534 33.9452 52.4873 21.7082 72.6716 24.362V39.0317ZM0.0373866 138.992H7.03562V120.931C6.99878 119.199 7.62494 117.54 8.84042 116.287C10.1296 115.107 11.8607 114.444 13.6287 114.518C14.881 114.555 16.0965 114.665 17.312 114.886V107.883C15.8755 107.662 14.439 107.551 12.9657 107.515C6.1148 107.22 0.332049 112.564 0.0373866 119.42C0.000553827 119.899 0.0373866 120.415 0.0742194 120.894L0.0373866 138.992ZM24.1997 136.227C22.4317 134.2 21.4741 131.546 21.6214 128.856V117.798C21.4741 115.107 22.4317 112.454 24.1997 110.426C26.1518 108.51 28.8406 107.478 31.5662 107.588H42.8002V114.481H31.7504C30.8664 114.37 29.9456 114.628 29.2458 115.181C28.6933 115.881 28.4355 116.803 28.546 117.688V119.973H40.7376V126.534H28.4723V128.819C28.3618 129.74 28.6196 130.625 29.1721 131.362C29.8719 131.915 30.7928 132.173 31.6767 132.062H42.7266V138.992H31.7136C28.988 139.102 26.2992 138.07 24.347 136.154L24.1997 136.227ZM51.6033 136.301C49.7985 134.274 48.8777 131.62 49.025 128.929V107.736H55.9864V128.892C55.8759 129.814 56.1337 130.735 56.6862 131.473C57.386 132.062 58.27 132.32 59.154 132.21H68.841L66.4469 138.992H59.0803C56.3547 139.102 53.7028 138.107 51.7138 136.227L51.6033 136.301ZM109.504 138.992V127.05L98.9703 107.699H106.852L112.967 119.825L119.118 107.699H127L116.503 127.05V138.992H109.504ZM92.414 112.122C90.9039 107.699 88.7307 107.699 87.5521 107.699H85.5999C84.4581 107.699 82.285 107.699 80.738 112.122C78.4912 118.867 71.4193 138.992 71.4193 138.992H78.7859L80.8117 132.947H92.3772L94.4398 138.992H101.806L92.414 112.122ZM83.0217 126.46L86.7049 115.845L90.3882 126.46H83.0217ZM105.821 91.4075C105.269 89.7857 104.458 89.7857 104.053 89.7857H103.353C102.948 89.7857 102.138 89.7857 101.585 91.4075L98.1599 101.286H100.886L101.622 99.074H105.821L106.558 101.286H109.283L105.821 91.4075ZM102.138 96.6782L103.464 92.7712L104.79 96.6782H102.138ZM11.787 101.286V93.6927C11.8239 92.8081 11.0872 92.0709 10.2032 92.0341C10.1664 92.0341 10.1296 92.0341 10.0927 92.0341C9.20875 91.9972 8.47209 92.6607 8.43526 93.5453C8.43526 93.5821 8.43526 93.6558 8.43526 93.6927V101.286H5.85697V93.6927C5.8938 92.8081 5.23081 92.0709 4.34682 92.0341C4.30999 92.0341 4.23632 92.0341 4.19949 92.0341C3.3155 91.9972 2.54202 92.6975 2.50518 93.5821C2.50518 93.619 2.50518 93.6558 2.50518 93.6927H2.68935V101.286H0.000553862V93.7296C-0.0362789 91.4443 1.76853 89.5645 4.05216 89.5277C4.12583 89.5277 4.16266 89.5277 4.23632 89.5277C5.34131 89.5277 6.44629 89.97 7.18295 90.8177C7.9196 89.97 9.02459 89.5277 10.1296 89.5277C12.4132 89.454 14.2917 91.26 14.3653 93.5453C14.3653 93.619 14.3653 93.6558 14.3653 93.7296V101.286H11.787ZM24.568 95.4619C24.4207 92.2921 26.8517 89.6383 30.0193 89.4908C30.0929 89.4908 30.1298 89.4908 30.2034 89.4908C33.3711 89.5277 35.8757 92.1078 35.8389 95.2776C35.8389 95.3513 35.8389 95.3882 35.8389 95.4619C35.9862 98.6317 33.5552 101.286 30.3876 101.433C30.3139 101.433 30.2771 101.433 30.2034 101.433C27.0358 101.396 24.5312 98.816 24.568 95.6462C24.568 95.5725 24.568 95.5356 24.568 95.4619ZM27.1463 95.4619C26.9622 97.3048 28.2881 98.9634 30.1298 99.1477C30.1666 99.1477 30.1666 99.1477 30.2034 99.1477C32.0451 99.0003 33.4079 97.3785 33.2606 95.5356C33.2606 95.4988 33.2606 95.4988 33.2606 95.4619C33.4816 93.6558 32.1556 91.9972 30.3508 91.7761C30.3139 91.7761 30.2403 91.7761 30.2034 91.7761C28.3618 91.9235 26.999 93.5084 27.1463 95.3145C27.1095 95.3513 27.1463 95.425 27.1463 95.4619ZM53.4818 90.7072C54.2552 91.518 54.6972 92.6238 54.6604 93.7296V101.101H52.1189V93.6927C52.1926 92.845 51.6033 92.1078 50.793 92.0341C50.6825 92.0341 50.572 92.0341 50.4246 92.0341C49.5775 91.9604 48.8408 92.5501 48.7672 93.3978C48.7672 93.5084 48.7672 93.619 48.7672 93.6927V101.286H46.2257V93.9138C46.1889 92.8081 46.6309 91.7023 47.4044 90.8915C48.2147 90.1174 49.3197 89.6751 50.4615 89.712C51.6033 89.6751 52.7083 90.1174 53.5186 90.8915L53.4818 90.7072ZM70.1302 101.286H65.8207V89.7857H70.1302C71.5298 89.7488 72.8558 90.3386 73.8135 91.3338C74.7711 92.5132 75.2868 94.0244 75.2131 95.5356C75.2868 97.0468 74.7711 98.5211 73.8135 99.7006C72.8558 100.733 71.5298 101.286 70.1302 101.286ZM70.1302 92.1815H68.3622V98.8529H70.1302C72.4506 98.8529 72.7453 96.8257 72.7821 95.4988C72.7821 93.877 72.3401 92.1815 70.1302 92.1815ZM85.1948 101.286V89.7857H87.7363V101.286H85.1948ZM121.88 101.286C120.849 101.359 119.854 100.954 119.118 100.253C118.455 99.5163 118.123 98.558 118.16 97.5628V89.7857H120.702V97.526C120.702 98.4843 120.923 98.7054 121.843 98.7423H125.527V101.286H121.88Z" fill="white"/>
<path d="M76.1064 23.6061H91V38H76.1064V23.6061ZM58.0479 0C63.0372 0 67.0957 3.92235 67.0957 8.74432C67.0957 13.5663 63.0372 17.4886 58.0479 17.4886C53.0585 17.4886 49 13.5663 49 8.74432C49 3.92235 53.0213 0 58.0479 0Z" fill="white"/>
</svg>
