<svg width="123" height="49" viewBox="0 0 123 49" fill="none" xmlns="http://www.w3.org/2000/svg">
<path d="M0.522727 48V1.45454H19.75C23.2348 1.45454 26.2424 2.08333 28.7727 3.34091C31.3182 4.58333 33.2803 6.37121 34.6591 8.70454C36.0379 11.0227 36.7273 13.7727 36.7273 16.9545C36.7273 20.1818 36.0227 22.9242 34.6136 25.1818C33.2045 27.4242 31.2045 29.1364 28.6136 30.3182C26.0227 31.4848 22.9545 32.0682 19.4091 32.0682H7.25V23.2045H17.3182C19.0152 23.2045 20.4318 22.9848 21.5682 22.5455C22.7197 22.0909 23.5909 21.4091 24.1818 20.5C24.7727 19.5758 25.0682 18.3939 25.0682 16.9545C25.0682 15.5151 24.7727 14.3258 24.1818 13.3864C23.5909 12.4318 22.7197 11.7197 21.5682 11.25C20.4167 10.7652 19 10.5227 17.3182 10.5227H11.7727V48H0.522727ZM26.7273 26.7273L38.3182 48H26.0455L14.6818 26.7273H26.7273ZM41.375 10.5909V1.45454H80.7159V10.5909H66.6023V48H55.5114V10.5909H41.375ZM111.369 15.4091C111.218 13.7424 110.544 12.447 109.347 11.5227C108.165 10.5833 106.475 10.1136 104.278 10.1136C102.824 10.1136 101.612 10.303 100.642 10.6818C99.6723 11.0606 98.9451 11.5833 98.4602 12.25C97.9754 12.9015 97.7254 13.6515 97.7102 14.5C97.6799 15.197 97.8163 15.8106 98.1193 16.3409C98.4375 16.8712 98.892 17.3409 99.483 17.75C100.089 18.1439 100.816 18.4924 101.665 18.7955C102.513 19.0985 103.468 19.3636 104.528 19.5909L108.528 20.5C110.831 21 112.862 21.6667 114.619 22.5C116.392 23.3333 117.877 24.3258 119.074 25.4773C120.286 26.6288 121.203 27.9545 121.824 29.4545C122.445 30.9545 122.763 32.6364 122.778 34.5C122.763 37.4394 122.021 39.9621 120.551 42.0682C119.081 44.1742 116.968 45.7879 114.21 46.9091C111.468 48.0303 108.157 48.5909 104.278 48.5909C100.384 48.5909 96.9905 48.0076 94.0966 46.8409C91.2027 45.6742 88.9527 43.9015 87.3466 41.5227C85.7405 39.1439 84.9148 36.1364 84.8693 32.5H95.642C95.733 34 96.1345 35.25 96.8466 36.25C97.5587 37.25 98.536 38.0076 99.7784 38.5227C101.036 39.0379 102.491 39.2955 104.142 39.2955C105.657 39.2955 106.945 39.0909 108.006 38.6818C109.081 38.2727 109.907 37.7045 110.483 36.9773C111.059 36.25 111.354 35.4167 111.369 34.4773C111.354 33.5985 111.081 32.8485 110.551 32.2273C110.021 31.5909 109.203 31.0455 108.097 30.5909C107.006 30.1212 105.612 29.6894 103.915 29.2955L99.0511 28.1591C95.0208 27.2348 91.8466 25.7424 89.5284 23.6818C87.2102 21.6061 86.0587 18.803 86.0739 15.2727C86.0587 12.3939 86.8314 9.87121 88.392 7.70454C89.9527 5.53788 92.1117 3.84848 94.8693 2.63636C97.6269 1.42424 100.771 0.81818 104.301 0.81818C107.907 0.81818 111.036 1.43182 113.688 2.65909C116.354 3.87121 118.422 5.57576 119.892 7.77273C121.362 9.9697 122.112 12.5151 122.142 15.4091H111.369Z" fill="white"/>
</svg>
