<svg width="27" height="23" viewBox="0 0 27 23" fill="none" xmlns="http://www.w3.org/2000/svg">
<path fill-rule="evenodd" clip-rule="evenodd" d="M4.0231 16.9247C4.0231 18.8427 5.5841 20.4037 7.50327 20.4037H8.94527C9.42827 20.4037 9.82027 20.7957 9.82027 21.2787C9.82027 21.7617 9.42827 22.1537 8.94527 22.1537H7.50327C4.61927 22.1537 2.2731 19.8076 2.2731 16.9247L2.27205 13.046L0.966553 13.0471C0.483553 13.0471 0.0915527 12.6551 0.0915527 12.1721C0.0915527 11.6891 0.483553 11.2971 0.966553 11.2971L3.1314 11.2957C3.13696 11.2956 3.14252 11.2956 3.1481 11.2956L3.16455 11.296L13.2159 11.2959L23.2672 11.2957C23.2731 11.2956 23.279 11.2956 23.2849 11.2956L23.3012 11.296L25.4665 11.2971C25.9495 11.2971 26.3415 11.6891 26.3415 12.1721C26.3415 12.6551 25.9495 13.0471 25.4665 13.0471L24.1599 13.046V16.9247C24.1599 19.8076 21.8137 22.1537 18.9297 22.1537H17.5239C17.0409 22.1537 16.6489 21.7617 16.6489 21.2787C16.6489 20.7957 17.0409 20.4037 17.5239 20.4037H18.9297C20.8489 20.4037 22.4099 18.8427 22.4099 16.9247V13.046H13.216H4.02205L4.0231 16.9247ZM18.9296 0.266357C21.8136 0.266357 24.1598 2.61252 24.1598 5.49419V7.26053C24.1598 7.74353 23.7678 8.13553 23.2848 8.13553C22.8018 8.13553 22.4098 7.74353 22.4098 7.26053V5.49419C22.4098 3.57736 20.8488 2.01636 18.9296 2.01636H17.5238C17.0408 2.01636 16.6488 1.62436 16.6488 1.14136C16.6488 0.658358 17.0408 0.266357 17.5238 0.266357H18.9296ZM8.9455 0.266357C9.4285 0.266357 9.8205 0.658358 9.8205 1.14136C9.8205 1.62436 9.4285 2.01636 8.9455 2.01636H7.5035C5.58434 2.01636 4.02334 3.57736 4.02334 5.49419V7.26053C4.02334 7.74353 3.63134 8.13553 3.14834 8.13553C2.66534 8.13553 2.27334 7.74353 2.27334 7.26053V5.49419C2.27334 2.61252 4.6195 0.266357 7.5035 0.266357H8.9455Z" fill="#A7A7A7"/>
</svg>
