<svg width="47" height="39" viewBox="0 0 47 39" fill="none" xmlns="http://www.w3.org/2000/svg">
<path d="M36.7212 7.54688C36.2981 7.54688 35.875 7.54688 35.4519 7.54688C33.125 3.20028 28.4712 0.375 23.3942 0.375C18.5288 0.375 14.0865 3.20028 11.5481 7.54688C11.125 7.54688 10.7019 7.54688 10.2788 7.54688C4.77885 7.54688 0.125 12.3281 0.125 18.196C0.125 24.0639 4.77885 28.6278 10.4904 28.6278H15.9904C17.2596 28.6278 18.1058 27.7585 18.1058 26.4545C18.1058 25.1506 17.2596 24.2813 15.9904 24.2813H10.4904C7.10577 24.2813 4.35577 21.456 4.35577 18.196C4.35577 14.9361 7.10577 11.8935 10.4904 11.8935C11.125 11.8935 11.7596 11.8935 12.1827 12.1108C13.2404 12.5455 14.2981 11.8935 14.7212 10.8068C16.2019 7.11222 19.5865 4.72159 23.6058 4.72159C27.625 4.72159 31.0096 7.11222 32.4904 10.8068C32.9135 11.8935 33.9712 12.3281 35.0288 12.1108C35.6635 11.8935 36.0865 11.8935 36.7212 11.8935C40.1058 11.8935 42.8558 14.7187 42.8558 18.196C42.8558 21.6733 40.1058 24.2813 36.7212 24.2813H25.7212V17.7614L27.8365 19.9347C28.2596 20.3693 28.8942 20.5866 29.3173 20.5866C29.7404 20.5866 30.375 20.3693 30.7981 19.9347C31.6442 19.0653 31.6442 17.7614 30.7981 16.892L24.875 10.8068C24.6635 10.5895 24.4519 10.3722 24.2404 10.3722C23.8173 10.1548 23.1827 10.1548 22.5481 10.3722C22.3365 10.5895 22.125 10.5895 21.9135 10.8068L16.2019 16.892C15.3558 17.7614 15.3558 19.2827 16.2019 19.9347C17.0481 20.5866 18.3173 20.804 19.1635 19.9347L21.2788 17.7614V36.4517C21.2788 37.7557 22.125 38.625 23.3942 38.625C24.6635 38.625 25.5096 37.7557 25.5096 36.4517V28.6278H36.5096C42.2212 28.6278 46.875 23.8466 46.875 17.9787C46.875 12.1108 42.4327 7.54688 36.7212 7.54688Z" fill="url(#paint0_linear_4_216)"/>
<defs>
<linearGradient id="paint0_linear_4_216" x1="0.125" y1="19.1522" x2="45.9122" y2="19.39" gradientUnits="userSpaceOnUse">
<stop stop-color="#FFD88E"/>
<stop offset="0.494792" stop-color="#B6499B"/>
<stop offset="1" stop-color="#5586C5"/>
</linearGradient>
</defs>
</svg>
